<svg id="Layer_1" data-name="Layer 1" xmlns="http://www.w3.org/2000/svg" viewBox="0 0 443.57 325.64"><defs><style>.cls-1{fill-rule:evenodd;}</style></defs><title>Untitled-1</title><path class="cls-1" d="M684.8,222.43c124.68,1.87,215.4,154.79,217.78,158.31.28.42,3,3.73-.67,8.3-5.72,8-96.54,159.22-218.23,159S466.93,397.19,461.93,389.88c-2.34-3.42-2.21-4.75.11-8.14C465.05,377.33,560.12,220.56,684.8,222.43ZM627.74,505.74l.75-.37V413.06a2.71,2.71,0,0,1,1.59,1.22,56.53,56.53,0,0,0,13.4,16.7,6.22,6.22,0,0,1,2.35,5.32c-.08,23.76,0,47.51,0,71.27,0,5-.05,5.21,4.75,6.49,4.57,1.22,9.24,2,13.9,2.94,2.14.41,4.38.37,6.49.86,2.38.55,2.7.45,2.74-2,0-.66,0-45.24,0-66.87,0-3.5,0-3.43,3.55-3.32s7.31.3,10.95.08c3.86-.24,4.11-.2,4.11,3.78,0,21.78,0,66.65,0,67.31-.08,1.46.64,2,2,1.81,2.15-.31,4.32-.55,6.45-1,5.34-1.07,10.66-2.24,16-3.36,3.42-.72,3.43-.71,3.43-4.08q0-37,0-73.91a4.57,4.57,0,0,1,1.75-4,60.79,60.79,0,0,0,12.88-14.62c.69-1.09,1.36-2.2,2-3.3l.86.09c0,15.22,0,76.39,0,92.22,1.54-.87,2.67-1.47,3.77-2.12,5.51-3.3,11-6.67,16.52-9.9,3.54-2.06,4.78-4.73,4.76-9.06-.22-44.29-.08-133.67-.1-134.48,0-1.66.73-3.15,2.4-3.12,4,.06,7.92,0,11.88,0,3.07,0,3.07,0,3.07,3,0,24.42,0,103.9,0,119.23,0,.91-.09,4.08.1,5.46,1.18-1.11,38.25-36.7,35.34-90.53C816.51,347,783.06,261.16,684.6,256.6,591.34,258,548.57,338.51,551.25,388c-2.08,52.84,33.57,86.54,34.47,87.33.17-1.34.21-4.79.23-5.56,0-2.05,0-78.92,0-116.39,0-3.13,0-5.32,3.19-5.33,3,0,6-.05,9,0,5,.1,5.18-1.12,5.18,5.28q0,67,0,134c0,1.88.26,3.43,1.95,4.55,4.87,3.24,9.64,6.62,14.57,9.75C622.33,503.21,625.1,504.38,627.74,505.74Zm-67.38-203c-4,3.32,4-3.37,0,0-5.11,4.34-10.17,8.75-15.23,13.14-1.48,1.28-3,2.54-4.35,3.94q-6.51,6.64-12.93,13.39c-4.28,4.49-8.66,8.89-12.74,13.56-4.81,5.51-9.39,11.21-14,16.91q-8.09,10.1-15.94,20.41a4.56,4.56,0,0,0-.71,3.8,37.61,37.61,0,0,0,4.41,7.48c4.33,5.7,8.81,11.3,13.35,16.84,3.52,4.3,7.18,8.49,10.87,12.64,3,3.33,6.05,6.54,9.11,9.78s6,6.41,9.07,9.49q6.93,6.87,14,13.56c3.88,3.64,5.34,4.86,9.29,8.43C536,435.69,531.26,411.25,533,378.53,534.93,352.13,542,328.14,560.36,302.71Zm252.1,160.74c.44-.35.92-.67,1.32-1.06,3.25-3.14,6.46-6.3,9.72-9.43,2.57-2.46,5.25-4.8,7.76-7.31s5.12-5.4,7.67-8.11c4.24-4.52,8.59-8.94,12.67-13.59,3.8-4.33,7.38-8.87,10.94-13.41q9.54-12.17,18.9-24.49a3,3,0,0,0,.12-2.66,57.73,57.73,0,0,0-4.19-5.9c-2.39-3.05-4.87-6-7.31-9.05-4.54-5.64-9-11.36-13.62-16.91-3.75-4.47-7.72-8.75-11.65-13.07-3-3.34-6.07-6.72-9.28-9.9-4.24-4.21-8.61-8.31-13-12.37q-9.31-8.61-18.75-17.09c-1.79-1.6,2.26,1.68,0,0C841.11,349.64,841.56,415.17,812.46,463.45Z" transform="translate(-460.24 -222.41)"/><path class="cls-1" d="M632.39,380.72c-.64-27.68,23.94-49.64,49.67-49.43,26.46.21,49.54,22,49.74,49.36.08,11.67-4,21.78-11.18,30.61-9.76,12-22.86,18.58-38.11,18.75C655.87,430.32,631.59,407.62,632.39,380.72Z" transform="translate(-460.24 -222.41)"/><path class="cls-1" d="M660,301.74c-.66,14.2-11.44,25.06-25.46,25.05a25.06,25.06,0,1,1,0-50.12C648.18,276.65,660.07,288.41,660,301.74Z" transform="translate(-460.24 -222.41)"/></svg>