<?xml version="1.0" encoding="utf-8"?>
<!-- Generator: Adobe Illustrator 21.1.0, SVG Export Plug-In . SVG Version: 6.00 Build 0)  -->
<svg version="1.1" id="Layer_1" xmlns="http://www.w3.org/2000/svg" xmlns:xlink="http://www.w3.org/1999/xlink" x="0px" y="0px"
	 viewBox="0 0 443.6 325.6" style="enable-background:new 0 0 443.6 325.6;" xml:space="preserve">
<style type="text/css">
	.st0{opacity:0.1;}
</style>
<title>Untitled-1</title>
<path class="st0" d="M224.6,0C349.2,1.9,440,154.8,442.3,158.3c0.3,0.4,3,3.7-0.7,8.3c-5.7,8-96.5,159.2-218.2,159
	S6.7,174.8,1.7,167.5c-2.3-3.4-2.2-4.8,0.1-8.1C4.8,154.9,99.9-1.9,224.6,0z M167.5,283.3l0.8-0.4v-92.3c0.7,0.2,1.2,0.6,1.6,1.2
	c3.4,6.4,7.9,12,13.4,16.7c1.6,1.3,2.5,3.3,2.3,5.3c-0.1,23.8,0,47.5,0,71.3c0,5,0,5.2,4.8,6.5c4.6,1.2,9.2,2,13.9,2.9
	c2.1,0.4,4.4,0.4,6.5,0.9c2.4,0.5,2.7,0.5,2.7-2c0-0.7,0-45.2,0-66.9c0-3.5,0-3.4,3.5-3.3s7.3,0.3,11,0.1c3.9-0.2,4.1-0.2,4.1,3.8
	c0,21.8,0,66.7,0,67.3c-0.1,1.5,0.6,2,2,1.8c2.2-0.3,4.3-0.5,6.5-1c5.3-1.1,10.7-2.2,16-3.4c3.4-0.7,3.4-0.7,3.4-4.1
	c0-24.7,0-49.3,0-73.9c-0.1-1.5,0.5-3,1.8-4c5.1-4.1,9.4-9.1,12.9-14.6c0.7-1.1,1.4-2.2,2-3.3l0.9,0.1c0,15.2,0,76.4,0,92.2
	c1.5-0.9,2.7-1.5,3.8-2.1c5.5-3.3,11-6.7,16.5-9.9c3.5-2.1,4.8-4.7,4.8-9.1c-0.2-44.3-0.1-133.7-0.1-134.5c0-1.7,0.7-3.1,2.4-3.1
	c4,0.1,7.9,0,11.9,0c3.1,0,3.1,0,3.1,3c0,24.4,0,103.9,0,119.2c0,0.9-0.1,4.1,0.1,5.5c1.2-1.1,38.3-36.7,35.3-90.5
	c1.1-38.2-32.4-124-130.8-128.6c-93.3,1.4-136,81.9-133.3,131.4c-2.1,52.8,33.6,86.5,34.5,87.3c0.2-1.3,0.2-4.8,0.2-5.6
	c0-2,0-78.9,0-116.4c0-3.1,0-5.3,3.2-5.3c3,0,6,0,9,0c5,0.1,5.2-1.1,5.2,5.3c0,44.7,0,89.3,0,134c0,1.9,0.3,3.4,2,4.5
	c4.9,3.2,9.6,6.6,14.6,9.8C162.1,280.8,164.9,282,167.5,283.3z M100.1,80.3C96.1,83.6,104.1,77,100.1,80.3
	C95,84.7,90,89.1,84.9,93.5c-1.5,1.3-3,2.5-4.3,3.9c-4.3,4.4-8.6,8.9-12.9,13.4c-4.3,4.5-8.7,8.9-12.7,13.6
	c-4.8,5.5-9.4,11.2-14,16.9c-5.4,6.7-10.7,13.5-15.9,20.4c-0.8,1.1-1,2.5-0.7,3.8c1.2,2.7,2.7,5.2,4.4,7.5
	c4.3,5.7,8.8,11.3,13.4,16.8c3.5,4.3,7.2,8.5,10.9,12.6c3,3.3,6,6.5,9.1,9.8s6,6.4,9.1,9.5c4.6,4.6,9.3,9.1,14,13.6
	c3.9,3.6,5.3,4.9,9.3,8.4c-18.6-30.4-23.3-54.9-21.6-87.6C74.7,129.7,81.8,105.7,100.1,80.3L100.1,80.3z M352.2,241.1
	c0.4-0.4,0.9-0.7,1.3-1.1c3.3-3.1,6.5-6.3,9.7-9.4c2.6-2.5,5.3-4.8,7.8-7.3s5.1-5.4,7.7-8.1c4.2-4.5,8.6-8.9,12.7-13.6
	c3.8-4.3,7.4-8.9,10.9-13.4c6.4-8.1,12.7-16.3,18.9-24.5c0.5-0.8,0.5-1.8,0.1-2.7c-1.3-2.1-2.7-4-4.2-5.9c-2.4-3-4.9-6-7.3-9
	c-4.5-5.6-9-11.4-13.6-16.9c-3.8-4.5-7.7-8.8-11.7-13.1c-3-3.3-6.1-6.7-9.3-9.9c-4.2-4.2-8.6-8.3-13-12.4
	c-6.2-5.7-12.5-11.4-18.8-17.1c-1.8-1.6,2.3,1.7,0,0C380.9,127.2,381.3,192.8,352.2,241.1L352.2,241.1z"/>
<path class="st0" d="M172.2,158.3c-0.6-27.7,23.9-49.6,49.7-49.4c26.5,0.2,49.5,22,49.7,49.4c0.1,11.7-4,21.8-11.2,30.6
	c-9.8,12-22.9,18.6-38.1,18.8C195.6,207.9,171.4,185.2,172.2,158.3z"/>
<path class="st0" d="M199.8,79.3c-0.7,14.2-11.4,25.1-25.5,25c-13.8,0-25.1-11.2-25.1-25c0-13.8,11.2-25.1,25-25.1c0,0,0,0,0,0
	C187.9,54.2,199.8,66,199.8,79.3z"/>
</svg>
